<?xml version="1.0" encoding="UTF-8"?>
<!DOCTYPE svg PUBLIC "-//W3C//DTD SVG 1.1//EN" "http://www.w3.org/Graphics/SVG/1.1/DTD/svg11.dtd">
<!-- Creator: CorelDRAW X8 -->
<svg xmlns="http://www.w3.org/2000/svg" xml:space="preserve" width="6.74552in" height="8.64648in" version="1.1" shape-rendering="geometricPrecision" text-rendering="geometricPrecision" image-rendering="optimizeQuality" fill-rule="evenodd" clip-rule="evenodd"
viewBox="0 0 6687 8571"
 xmlns:xlink="http://www.w3.org/1999/xlink">
 <g id="Layer_x0020_1">
  <metadata id="CorelCorpID_0Corel-Layer"/>
  <g id="_1928643254352">
   <g>
    <path fill="#FFF200" fill-rule="nonzero" stroke="black" stroke-width="55.0699" d="M3403 39c0,0 -1133,1172 -3361,1172 330,738 1661,3071 27,6287 0,0 1800,-247 3310,1036 0,0 1217,-1136 3235,-1136 -1337,-2500 -974,-4613 27,-6229 -308,-40 -2038,-15 -3238,-1130z"/>
    <path fill="#031CFB" fill-rule="nonzero" stroke="black" stroke-width="27.5369" d="M3398 228c0,0 -1050,1121 -3115,1121 305,705 1539,2933 24,6005 0,0 1669,-235 3069,991 0,0 1128,-1086 2999,-1086 -1239,-2388 -903,-4407 25,-5951 -285,-39 -1889,-14 -3002,-1080z"/>
    <g>
     <path fill="#FFF200" fill-rule="nonzero" stroke="black" stroke-width="27.5369" d="M2355 2127c0,0 34,283 6,369 -108,34 -477,164 -506,869 -108,-114 -272,-426 -341,-449 -68,-23 -96,40 -96,40 0,0 28,17 51,136 23,119 63,216 63,358 0,142 11,210 22,290 12,79 216,102 262,119 45,17 102,40 136,102 34,63 204,295 284,352 79,57 159,154 261,176 102,23 136,51 159,29 23,-23 11,-114 11,-114 0,0 148,125 228,131 79,5 119,-6 119,-80 0,-74 -170,-483 -244,-608 -12,-181 11,-471 11,-471 0,0 -153,63 -170,108 -12,-159 17,-227 17,-227 0,0 414,-301 426,-489 108,-5 551,17 647,120 97,102 199,193 296,244 96,51 125,-17 125,-17l-46 -119c0,0 187,11 301,73 114,63 193,114 267,114 74,0 335,-188 347,-256 11,-68 -103,-91 -160,-96 97,-63 177,-131 205,-216 28,-85 51,-187 187,-295 46,-103 46,-148 -68,-120 -113,29 -386,159 -511,262 -125,102 -256,210 -369,227 -114,17 -290,-23 -290,-23 0,0 199,-102 216,-165 -68,-73 -85,-68 -199,-73 -113,-6 -176,22 -255,62 -80,40 -262,-11 -381,-17 -119,-6 -352,-57 -466,-57 -113,0 -250,-6 -250,-6 0,0 -90,-147 -295,-283z"/>
     <path fill="none" fill-rule="nonzero" stroke="black" stroke-width="27.5369" d="M2378 2189c0,0 125,159 155,215 30,55 25,38 30,210 4,171 13,347 -30,441 -43,94 -52,240 -52,317"/>
     <line fill="none" fill-rule="nonzero" stroke="black" stroke-width="27.5369" x1="1855" y1="3365" x2="1964" y2= "3550" />
     <path fill="none" fill-rule="nonzero" stroke="#070500" stroke-width="27.5369" d="M2204 3400c0,0 -141,-223 -64,-395 77,-171 218,-355 227,-428 8,-73 13,-116 13,-116"/>
     <path fill="none" fill-rule="nonzero" stroke="#070500" stroke-width="27.5369" d="M2247 3310c0,0 -133,-82 -137,-150"/>
     <line fill="none" fill-rule="nonzero" stroke="#070500" stroke-width="27.5369" x1="2247" y1="3220" x2="2127" y2= "3065" />
     <line fill="none" fill-rule="nonzero" stroke="#070500" stroke-width="27.5369" x1="2285" y1="3134" x2="2161" y2= "2984" />
     <line fill="none" fill-rule="nonzero" stroke="#070500" stroke-width="27.5369" x1="2315" y1="3052" x2="2200" y2= "2898" />
     <line fill="none" fill-rule="nonzero" stroke="#070500" stroke-width="27.5369" x1="2337" y1="2954" x2="2226" y2= "2813" />
     <line fill="none" fill-rule="nonzero" stroke="#070500" stroke-width="27.5369" x1="2367" y1="2873" x2="2277" y2= "2770" />
     <line fill="none" fill-rule="nonzero" stroke="#070500" stroke-width="27.5369" x1="2384" y1="2795" x2="2320" y2= "2705" />
     <line fill="none" fill-rule="nonzero" stroke="#070500" stroke-width="27.5369" x1="2427" y1="2714" x2="2358" y2= "2650" />
     <line fill="none" fill-rule="nonzero" stroke="#070500" stroke-width="27.5369" x1="2470" y1="2633" x2="2380" y2= "2568" />
     <line fill="none" fill-rule="nonzero" stroke="#070500" stroke-width="27.5369" x1="2474" y1="2478" x2="2384" y2= "2474" />
     <line fill="none" fill-rule="nonzero" stroke="#070500" stroke-width="27.5369" x1="2448" y1="2405" x2="2384" y2= "2397" />
     <path fill="none" fill-rule="nonzero" stroke="#050500" stroke-width="27.5369" d="M2654 2984c0,0 107,-214 369,-219"/>
     <line fill="none" fill-rule="nonzero" stroke="#050500" stroke-width="27.5369" x1="2658" y1="3048" x2="2800" y2= "3048" />
     <line fill="none" fill-rule="nonzero" stroke="#050500" stroke-width="27.5369" x1="2654" y1="2984" x2="2817" y2= "2988" />
     <line fill="none" fill-rule="nonzero" stroke="#050500" stroke-width="27.5369" x1="2701" y1="2920" x2="2868" y2= "2924" />
     <line fill="none" fill-rule="nonzero" stroke="#050500" stroke-width="27.5369" x1="2778" y1="2860" x2="2920" y2= "2864" />
     <line fill="none" fill-rule="nonzero" stroke="#050500" stroke-width="27.5369" x1="2847" y1="2795" x2="2984" y2= "2795" />
     <line fill="none" fill-rule="nonzero" stroke="#050500" stroke-width="27.5369" x1="2093" y1="4149" x2="2054" y2= "3897" />
     <line fill="none" fill-rule="nonzero" stroke="#050500" stroke-width="27.5369" x1="2028" y1="4064" x2="1994" y2= "3914" />
     <line fill="none" fill-rule="nonzero" stroke="#050500" stroke-width="27.5369" x1="1566" y1="3730" x2="1810" y2= "3755" />
     <line fill="none" fill-rule="nonzero" stroke="#050500" stroke-width="27.5369" x1="1536" y1="3648" x2="1711" y2= "3661" />
     <line fill="none" fill-rule="nonzero" stroke="#050500" stroke-width="27.5369" x1="1548" y1="3575" x2="1668" y2= "3592" />
     <line fill="none" fill-rule="nonzero" stroke="#050500" stroke-width="27.5369" x1="1544" y1="3507" x2="1634" y2= "3507" />
     <line fill="none" fill-rule="nonzero" stroke="#050500" stroke-width="27.5369" x1="1544" y1="3447" x2="1630" y2= "3451" />
     <line fill="none" fill-rule="nonzero" stroke="#050500" stroke-width="27.5369" x1="1531" y1="3378" x2="1604" y2= "3378" />
     <line fill="none" fill-rule="nonzero" stroke="#050500" stroke-width="27.5369" x1="1518" y1="3322" x2="1578" y2= "3322" />
     <line fill="none" fill-rule="nonzero" stroke="#050500" stroke-width="27.5369" x1="1518" y1="3267" x2="1570" y2= "3267" />
     <line fill="none" fill-rule="nonzero" stroke="#050500" stroke-width="27.5369" x1="1493" y1="3215" x2="1531" y2= "3215" />
     <path fill="#050500" fill-rule="nonzero" d="M2667 4222c0,31 -26,56 -58,56 -32,0 -58,-25 -58,-56 0,-30 26,-55 58,-55 32,0 58,25 58,55z"/>
     <line fill="none" fill-rule="nonzero" stroke="#050500" stroke-width="27.5369" x1="2658" y1="4394" x2="2337" y2= "4197" />
     <line fill="none" fill-rule="nonzero" stroke="#050500" stroke-width="27.5369" x1="2350" y1="4197" x2="2555" y2= "4419" />
     <path fill="none" fill-rule="nonzero" stroke="#050500" stroke-width="27.5369" d="M2555 4419c0,0 39,39 73,22 35,-17 39,-37 39,-37"/>
     <path fill="none" fill-rule="nonzero" stroke="#070500" stroke-width="27.5369" d="M2650 3670c0,0 -65,-112 -65,-202 0,-90 39,-261 39,-261 0,0 30,-184 34,-334 5,-150 17,-343 9,-408 -9,-64 -17,-55 -17,-55"/>
     <line fill="none" fill-rule="nonzero" stroke="#050500" stroke-width="27.5369" x1="3884" y1="2997" x2="4068" y2= "3018" />
     <line fill="none" fill-rule="nonzero" stroke="#050500" stroke-width="27.5369" x1="3948" y1="3057" x2="4107" y2= "3074" />
     <line fill="none" fill-rule="nonzero" stroke="#050500" stroke-width="27.5369" x1="4394" y1="3027" x2="4668" y2= "3052" />
     <line fill="none" fill-rule="nonzero" stroke="#050500" stroke-width="27.5369" x1="4419" y1="2975" x2="4745" y2= "2975" />
     <line fill="none" fill-rule="nonzero" stroke="#050500" stroke-width="27.5369" x1="4531" y1="2907" x2="4792" y2= "2894" />
     <line fill="none" fill-rule="nonzero" stroke="#050500" stroke-width="27.5369" x1="4587" y1="2843" x2="4784" y2= "2830" />
     <line fill="none" fill-rule="nonzero" stroke="#050500" stroke-width="27.5369" x1="4664" y1="2787" x2="4831" y2= "2761" />
     <line fill="none" fill-rule="nonzero" stroke="#050500" stroke-width="27.5369" x1="4749" y1="2701" x2="4882" y2= "2701" />
     <line fill="none" fill-rule="nonzero" stroke="#050500" stroke-width="27.5369" x1="4801" y1="2650" x2="4942" y2= "2650" />
     <line fill="none" fill-rule="nonzero" stroke="#050500" stroke-width="27.5369" x1="4839" y1="2594" x2="4977" y2= "2594" />
     <line fill="none" fill-rule="nonzero" stroke="#050500" stroke-width="27.5369" x1="4891" y1="2521" x2="5011" y2= "2513" />
     <line fill="none" fill-rule="nonzero" stroke="#050500" stroke-width="27.5369" x1="4964" y1="2461" x2="5054" y2= "2461" />
     <line fill="none" fill-rule="nonzero" stroke="#050500" stroke-width="27.5369" x1="5032" y1="2405" x2="5109" y2= "2401" />
     <line fill="none" fill-rule="nonzero" stroke="#050500" stroke-width="27.5369" x1="5062" y1="2345" x2="5182" y2= "2345" />
     <line fill="none" fill-rule="nonzero" stroke="#050500" stroke-width="27.5369" x1="3995" y1="2564" x2="4150" y2= "2560" />
    </g>
    <g>
     <path fill="#FFF200" fill-rule="nonzero" stroke="black" stroke-width="27.5369" d="M3673 3957c0,0 57,-65 101,-65 43,0 374,115 467,129 94,15 252,36 346,36 93,0 323,166 374,216 50,51 194,238 194,238l209 21c0,0 65,94 57,144 -7,51 -7,108 -7,108 0,0 87,108 51,159 -36,50 -101,21 -101,21 0,0 0,410 -123,648 -122,237 -424,561 -705,583 -86,-44 -136,-159 -266,-144 58,14 209,43 194,144 -14,100 -115,208 -172,216 -58,7 -216,57 -216,57l136 36c0,0 116,-22 144,7 29,29 36,123 -14,137 -50,14 -144,79 -144,79 0,0 -65,-36 -108,-72 -43,-36 -151,-79 -194,-93 -43,-15 -65,-94 -29,-130 36,-36 202,-122 202,-122 0,0 -231,21 -288,0 -58,-22 29,0 -151,-79 -180,-80 -576,-123 -713,-144 -136,-22 -403,-130 -633,-94 -230,36 -446,130 -561,252 -115,122 -195,324 -195,324 0,0 -7,-331 44,-374 50,-44 79,-144 79,-144l101 -79 71 -108 108 -72 130 -87 165 -14 80 -72 158 0 151 -36 144 29 187 -36 144 21 180 8 244 -36c0,0 36,-22 166,-22 130,0 266,7 317,7 50,0 144,-43 151,22 7,65 7,65 7,65 0,0 309,-130 410,-281 101,-151 115,-288 115,-288 0,0 -50,194 -129,194 -79,0 -173,-158 -202,-216 -29,-57 0,-136 -86,-136 -87,0 -130,-101 -79,-130 50,-29 158,-36 187,-21 29,14 86,108 122,151 36,43 7,129 7,129 0,0 43,-172 79,-244 36,-72 159,-108 159,-108 0,0 -101,7 -130,-43 -29,-51 -29,-101 -29,-101 0,0 -215,36 -266,29 -50,-8 -403,-108 -482,-166 -79,-58 -115,-137 -115,-137l151 44c0,0 144,43 209,50 65,7 295,7 295,7 0,0 -29,-79 -123,-137 -93,-57 -525,-223 -575,-280z"/>
     <line fill="none" fill-rule="nonzero" stroke="#050500" stroke-width="27.5369" x1="4464" y1="4266" x2="4579" y2= "4266" />
     <line fill="none" fill-rule="nonzero" stroke="#050500" stroke-width="27.5369" x1="4579" y1="4266" x2="4680" y2= "4338" />
     <line fill="none" fill-rule="nonzero" stroke="#050500" stroke-width="27.5369" x1="4745" y1="4453" x2="4846" y2= "4453" />
     <line fill="none" fill-rule="nonzero" stroke="#050500" stroke-width="27.5369" x1="4867" y1="4388" x2="4867" y2= "4288" />
     <line fill="none" fill-rule="nonzero" stroke="#050500" stroke-width="27.5369" x1="4263" y1="4093" x2="4126" y2= "4065" />
     <line fill="none" fill-rule="nonzero" stroke="#050500" stroke-width="27.5369" x1="5155" y1="4511" x2="5306" y2= "4734" />
     <line fill="none" fill-rule="nonzero" stroke="#050500" stroke-width="27.5369" x1="5306" y1="4734" x2="5364" y2= "4964" />
     <line fill="none" fill-rule="nonzero" stroke="#050500" stroke-width="27.5369" x1="5184" y1="4748" x2="5227" y2= "4856" />
     <line fill="none" fill-rule="nonzero" stroke="#050500" stroke-width="27.5369" x1="5198" y1="4928" x2="5198" y2= "5000" />
     <line fill="none" fill-rule="nonzero" stroke="#050500" stroke-width="27.5369" x1="5155" y1="5050" x2="5155" y2= "5187" />
     <line fill="none" fill-rule="nonzero" stroke="#050500" stroke-width="27.5369" x1="5105" y1="5245" x2="5076" y2= "5346" />
     <line fill="none" fill-rule="nonzero" stroke="#050500" stroke-width="27.5369" x1="5026" y1="5417" x2="4975" y2= "5511" />
     <line fill="none" fill-rule="nonzero" stroke="#050500" stroke-width="27.5369" x1="4925" y1="5554" x2="4817" y2= "5662" />
     <line fill="none" fill-rule="nonzero" stroke="#050500" stroke-width="27.5369" x1="4723" y1="5691" x2="4644" y2= "5777" />
     <line fill="none" fill-rule="nonzero" stroke="#050500" stroke-width="27.5369" x1="4558" y1="5842" x2="4450" y2= "5907" />
     <line fill="none" fill-rule="nonzero" stroke="#050500" stroke-width="27.5369" x1="4810" y1="4734" x2="4831" y2= "4935" />
     <line fill="none" fill-rule="nonzero" stroke="#050500" stroke-width="27.5369" x1="4810" y1="5015" x2="4767" y2= "5101" />
     <line fill="none" fill-rule="nonzero" stroke="#050500" stroke-width="27.5369" x1="4666" y1="5180" x2="4759" y2= "5158" />
     <line fill="none" fill-rule="nonzero" stroke="#050500" stroke-width="27.5369" x1="4623" y1="5324" x2="4695" y2= "5295" />
     <line fill="none" fill-rule="nonzero" stroke="#050500" stroke-width="27.5369" x1="4839" y1="5180" x2="4817" y2= "5238" />
     <line fill="none" fill-rule="nonzero" stroke="#050500" stroke-width="27.5369" x1="4910" y1="4986" x2="4903" y2= "5101" />
     <line fill="none" fill-rule="nonzero" stroke="#050500" stroke-width="27.5369" x1="4939" y1="4856" x2="4939" y2= "4935" />
     <line fill="none" fill-rule="nonzero" stroke="#050500" stroke-width="27.5369" x1="4918" y1="4719" x2="4954" y2= "4799" />
     <line fill="none" fill-rule="nonzero" stroke="#050500" stroke-width="27.5369" x1="5054" y1="4719" x2="5098" y2= "4820" />
     <line fill="none" fill-rule="nonzero" stroke="#050500" stroke-width="27.5369" x1="5069" y1="4907" x2="5069" y2= "5015" />
     <line fill="none" fill-rule="nonzero" stroke="#050500" stroke-width="27.5369" x1="5040" y1="5094" x2="4997" y2= "5173" />
     <line fill="none" fill-rule="nonzero" stroke="#050500" stroke-width="27.5369" x1="4968" y1="5223" x2="4932" y2= "5281" />
     <line fill="none" fill-rule="nonzero" stroke="#050500" stroke-width="27.5369" x1="4925" y1="5331" x2="4853" y2= "5432" />
     <line fill="none" fill-rule="nonzero" stroke="#050500" stroke-width="27.5369" x1="4788" y1="5489" x2="4731" y2= "5590" />
     <line fill="none" fill-rule="nonzero" stroke="#050500" stroke-width="27.5369" x1="4659" y1="5619" x2="4572" y2= "5713" />
     <line fill="none" fill-rule="nonzero" stroke="#050500" stroke-width="27.5369" x1="4472" y1="5756" x2="4385" y2= "5820" />
     <line fill="none" fill-rule="nonzero" stroke="#050500" stroke-width="27.5369" x1="4277" y1="5878" x2="4061" y2= "5921" />
     <line fill="none" fill-rule="nonzero" stroke="#050500" stroke-width="27.5369" x1="4212" y1="5741" x2="4033" y2= "5835" />
     <line fill="none" fill-rule="nonzero" stroke="#050500" stroke-width="27.5369" x1="4033" y1="5835" x2="3766" y2= "5842" />
     <line fill="none" fill-rule="nonzero" stroke="#050500" stroke-width="27.5369" x1="4320" y1="5713" x2="4392" y2= "5641" />
     <line fill="none" fill-rule="nonzero" stroke="#050500" stroke-width="27.5369" x1="4515" y1="5986" x2="4637" y2= "5943" />
     <line fill="none" fill-rule="nonzero" stroke="#050500" stroke-width="27.5369" x1="4565" y1="6065" x2="4680" y2= "6058" />
     <line fill="none" fill-rule="nonzero" stroke="#050500" stroke-width="27.5369" x1="4025" y1="6036" x2="4400" y2= "6000" />
     <line fill="none" fill-rule="nonzero" stroke="#050500" stroke-width="27.5369" x1="3917" y1="5936" x2="3968" y2= "5972" />
     <line fill="none" fill-rule="nonzero" stroke="#050500" stroke-width="27.5369" x1="3716" y1="6087" x2="3838" y2= "6195" />
     <line fill="none" fill-rule="nonzero" stroke="#050500" stroke-width="27.5369" x1="4709" y1="5885" x2="4810" y2= "5806" />
     <line fill="none" fill-rule="nonzero" stroke="#050500" stroke-width="27.5369" x1="4903" y1="5727" x2="5011" y2= "5626" />
     <line fill="none" fill-rule="nonzero" stroke="#050500" stroke-width="27.5369" x1="5098" y1="5554" x2="5134" y2= "5468" />
     <line fill="none" fill-rule="nonzero" stroke="#050500" stroke-width="27.5369" x1="5184" y1="5353" x2="5198" y2= "5274" />
     <line fill="none" fill-rule="nonzero" stroke="#050500" stroke-width="27.5369" x1="5249" y1="5202" x2="5256" y2= "5122" />
     <line fill="none" fill-rule="nonzero" stroke="#050500" stroke-width="27.5369" x1="5263" y1="5015" x2="5263" y2= "4928" />
     <line fill="none" fill-rule="nonzero" stroke="#050500" stroke-width="27.5369" x1="5047" y1="5734" x2="4954" y2= "5842" />
     <line fill="none" fill-rule="nonzero" stroke="#050500" stroke-width="27.5369" x1="4896" y1="5921" x2="4745" y2= "6022" />
     <line fill="none" fill-rule="nonzero" stroke="#050500" stroke-width="27.5369" x1="4889" y1="4547" x2="4903" y2= "4612" />
     <line fill="none" fill-rule="nonzero" stroke="#050500" stroke-width="27.5369" x1="5011" y1="4540" x2="5011" y2= "4619" />
     <line fill="none" fill-rule="nonzero" stroke="#050500" stroke-width="27.5369" x1="5083" y1="4540" x2="5119" y2= "4619" />
     <line fill="none" fill-rule="nonzero" stroke="#050500" stroke-width="27.5369" x1="3630" y1="5662" x2="3810" y2= "5684" />
     <line fill="none" fill-rule="nonzero" stroke="#050500" stroke-width="27.5369" x1="3810" y1="5684" x2="3982" y2= "5547" />
     <line fill="none" fill-rule="nonzero" stroke="#050500" stroke-width="27.5369" x1="3838" y1="5655" x2="4155" y2= "5641" />
     <line fill="none" fill-rule="nonzero" stroke="#050500" stroke-width="27.5369" x1="1600" y1="6159" x2="1701" y2= "6159" />
     <line fill="none" fill-rule="nonzero" stroke="#050500" stroke-width="27.5369" x1="1564" y1="6252" x2="1651" y2= "6252" />
     <line fill="none" fill-rule="nonzero" stroke="#050500" stroke-width="27.5369" x1="1737" y1="6058" x2="1737" y2= "6144" />
     <line fill="none" fill-rule="nonzero" stroke="#050500" stroke-width="27.5369" x1="1816" y1="5993" x2="1809" y2= "6072" />
     <line fill="none" fill-rule="nonzero" stroke="#050500" stroke-width="27.5369" x1="1895" y1="5936" x2="1903" y2= "6022" />
     <line fill="none" fill-rule="nonzero" stroke="#050500" stroke-width="27.5369" x1="2003" y1="5871" x2="1996" y2= "5957" />
     <line fill="none" fill-rule="nonzero" stroke="#050500" stroke-width="27.5369" x1="2126" y1="5828" x2="2083" y2= "5936" />
     <line fill="none" fill-rule="nonzero" stroke="#050500" stroke-width="27.5369" x1="2226" y1="5792" x2="2190" y2= "5885" />
     <line fill="none" fill-rule="nonzero" stroke="#050500" stroke-width="27.5369" x1="2334" y1="5741" x2="2313" y2= "5871" />
     <line fill="none" fill-rule="nonzero" stroke="#050500" stroke-width="27.5369" x1="2435" y1="5748" x2="2435" y2= "5856" />
     <line fill="none" fill-rule="nonzero" stroke="#050500" stroke-width="27.5369" x1="2543" y1="5713" x2="2543" y2= "5856" />
     <line fill="none" fill-rule="nonzero" stroke="#050500" stroke-width="27.5369" x1="2651" y1="5720" x2="2651" y2= "5864" />
     <line fill="none" fill-rule="nonzero" stroke="#050500" stroke-width="27.5369" x1="2788" y1="5727" x2="2788" y2= "5892" />
     <line fill="none" fill-rule="nonzero" stroke="#050500" stroke-width="27.5369" x1="2888" y1="5734" x2="2896" y2= "5892" />
     <line fill="none" fill-rule="nonzero" stroke="#050500" stroke-width="27.5369" x1="2867" y1="5590" x2="2831" y2= "5669" />
     <line fill="none" fill-rule="nonzero" stroke="#050500" stroke-width="27.5369" x1="2701" y1="5619" x2="2694" y2= "5669" />
     <line fill="none" fill-rule="nonzero" stroke="#050500" stroke-width="27.5369" x1="2536" y1="5619" x2="2536" y2= "5662" />
     <line fill="none" fill-rule="nonzero" stroke="#050500" stroke-width="27.5369" x1="2363" y1="5641" x2="2378" y2= "5691" />
     <line fill="none" fill-rule="nonzero" stroke="#050500" stroke-width="27.5369" x1="2226" y1="5691" x2="2226" y2= "5727" />
     <line fill="none" fill-rule="nonzero" stroke="#050500" stroke-width="27.5369" x1="2083" y1="5720" x2="2097" y2= "5784" />
     <line fill="none" fill-rule="nonzero" stroke="#050500" stroke-width="27.5369" x1="1931" y1="5792" x2="1939" y2= "5864" />
     <line fill="none" fill-rule="nonzero" stroke="#050500" stroke-width="27.5369" x1="1831" y1="5885" x2="1831" y2= "5936" />
     <path fill="#050500" fill-rule="nonzero" d="M4536 4158c0,20 -37,36 -82,36 -46,0 -83,-16 -83,-36 0,-20 37,-36 83,-36 45,0 82,16 82,36z"/>
     <line fill="none" fill-rule="nonzero" stroke="black" stroke-width="27.5369" x1="4781" y1="5324" x2="4719" y2= "5406" />
     <line fill="none" fill-rule="nonzero" stroke="black" stroke-width="27.5369" x1="4647" y1="5468" x2="4606" y2= "5499" />
     <line fill="none" fill-rule="nonzero" stroke="black" stroke-width="27.5369" x1="4513" y1="5560" x2="4452" y2= "5591" />
    </g>
    <g>
     <g>
      <g>
       <polygon fill="white" fill-rule="nonzero" points="4665,7130 4449,7120 4320,7043 4042,7038 4006,6961 3857,6940 3714,6603 3672,6585 3672,6483 3647,6483 3646,6122 3621,6127 3536,2035 3537,1931 3510,1918 3503,1677 3402,1487 3343,961 3343,943 3342,952 3341,943 3341,960 3281,1487 3180,1677 3173,1918 3146,1931 3147,2035 3062,6127 3037,6121 3037,6483 3011,6483 3011,6585 2970,6603 2826,6940 2677,6961 2641,7038 2363,7043 2234,7120 2018,7130 1961,7197 4722,7197 "/>
      </g>
      <g>
       <polygon fill="none" fill-rule="nonzero" stroke="black" stroke-width="27.5369" points="4665,7130 4449,7120 4320,7043 4042,7038 4006,6961 3857,6940 3714,6603 3672,6585 3672,6483 3647,6483 3646,6122 3621,6127 3536,2035 3537,1931 3510,1918 3503,1677 3402,1487 3343,961 3343,943 3342,952 3341,943 3341,960 3281,1487 3180,1677 3173,1918 3146,1931 3147,2035 3062,6127 3037,6121 3037,6483 3011,6483 3011,6585 2970,6603 2826,6940 2677,6961 2641,7038 2363,7043 2234,7120 2018,7130 1961,7197 4722,7197 "/>
      </g>
     </g>
     <polygon fill="white" fill-rule="nonzero" stroke="black" stroke-width="27.5369" points="3281,1484 3404,1484 "/>
     <polygon fill="white" fill-rule="nonzero" stroke="black" stroke-width="27.5369" points="3182,1843 3343,1621 "/>
     <polygon fill="white" fill-rule="nonzero" stroke="black" stroke-width="27.5369" points="3343,1621 3500,1854 "/>
     <polygon fill="white" fill-rule="nonzero" stroke="black" stroke-width="27.5369" points="3174,1925 3513,1925 "/>
     <polygon fill="white" fill-rule="nonzero" stroke="black" stroke-width="27.5369" points="3153,2004 3534,2004 "/>
     <polygon fill="white" fill-rule="nonzero" stroke="black" stroke-width="27.5369" points="2803,6941 3865,6941 "/>
     <polygon fill="white" fill-rule="nonzero" stroke="black" stroke-width="27.5369" points="2622,7043 4081,7043 "/>
     <polygon fill="white" fill-rule="nonzero" stroke="black" stroke-width="27.5369" points="3011,6585 3671,6585 "/>
     <polygon fill="white" fill-rule="nonzero" stroke="black" stroke-width="27.5369" points="3026,6481 3658,6481 "/>
     <polygon fill="white" fill-rule="nonzero" stroke="black" stroke-width="27.5369" points="3105,6601 3000,6935 "/>
     <polygon fill="white" fill-rule="nonzero" stroke="black" stroke-width="27.5369" points="3255,6585 3242,6935 "/>
     <polygon fill="white" fill-rule="nonzero" stroke="black" stroke-width="27.5369" points="3452,6585 3467,6941 "/>
     <polygon fill="white" fill-rule="nonzero" stroke="black" stroke-width="27.5369" points="3572,6585 3719,6951 "/>
     <polygon fill="white" fill-rule="nonzero" stroke="black" stroke-width="27.5369" points="3035,6115 3156,6274 "/>
     <polygon fill="white" fill-rule="nonzero" stroke="black" stroke-width="27.5369" points="3156,6274 3270,6125 "/>
     <polygon fill="white" fill-rule="nonzero" stroke="black" stroke-width="27.5369" points="3270,6125 3359,6283 "/>
     <polygon fill="white" fill-rule="nonzero" stroke="black" stroke-width="27.5369" points="3359,6283 3448,6115 "/>
     <polygon fill="white" fill-rule="nonzero" stroke="black" stroke-width="27.5369" points="3448,6115 3544,6293 "/>
     <polygon fill="white" fill-rule="nonzero" stroke="black" stroke-width="27.5369" points="3544,6293 3621,6127 "/>
     <polygon fill="white" fill-rule="nonzero" stroke="black" stroke-width="27.5369" points="3158,2096 3274,2235 "/>
     <polygon fill="white" fill-rule="nonzero" stroke="black" stroke-width="27.5369" points="3274,2235 3335,2081 "/>
     <polygon fill="white" fill-rule="nonzero" stroke="black" stroke-width="27.5369" points="3335,2081 3428,2243 "/>
     <polygon fill="white" fill-rule="nonzero" stroke="black" stroke-width="27.5369" points="3428,2243 3528,2088 "/>
     <polygon fill="white" fill-rule="nonzero" stroke="black" stroke-width="27.5369" points="3158,2096 3119,6242 "/>
     <polygon fill="white" fill-rule="nonzero" stroke="black" stroke-width="27.5369" points="3528,2088 3575,6235 "/>
     <polygon fill="white" fill-rule="nonzero" stroke="black" stroke-width="27.5369" points="3235,6142 3250,2212 "/>
     <polygon fill="white" fill-rule="nonzero" stroke="black" stroke-width="27.5369" points="3274,2189 3305,6142 "/>
     <polygon fill="white" fill-rule="nonzero" stroke="black" stroke-width="27.5369" points="3382,6157 3397,2212 "/>
     <polygon fill="white" fill-rule="nonzero" stroke="black" stroke-width="27.5369" points="3428,2204 3467,6127 "/>
    </g>
   </g>
  </g>
 </g>
</svg>
